<?xml version="1.0" encoding="UTF-8" standalone="no"?>
<!-- Created with Inkscape (http://www.inkscape.org/) -->

<svg
   width="900"
   height="300"
   viewBox="0 0 238.125 79.375008"
   version="1.1"
   id="svg1"
   inkscape:version="1.3.2 (091e20e, 2023-11-25, custom)"
   sodipodi:docname="logo.svg"
   inkscape:export-filename="gith.png"
   inkscape:export-xdpi="25.4"
   inkscape:export-ydpi="25.4"
   xmlns:inkscape="http://www.inkscape.org/namespaces/inkscape"
   xmlns:sodipodi="http://sodipodi.sourceforge.net/DTD/sodipodi-0.dtd"
   xmlns="http://www.w3.org/2000/svg"
   xmlns:svg="http://www.w3.org/2000/svg">
  <sodipodi:namedview
     id="namedview1"
     pagecolor="#ffffff"
     bordercolor="#000000"
     borderopacity="0.25"
     inkscape:showpageshadow="2"
     inkscape:pageopacity="0.0"
     inkscape:pagecheckerboard="0"
     inkscape:deskcolor="#d1d1d1"
     inkscape:document-units="mm"
     inkscape:zoom="1"
     inkscape:cx="439"
     inkscape:cy="125.5"
     inkscape:window-width="1920"
     inkscape:window-height="1051"
     inkscape:window-x="-9"
     inkscape:window-y="-9"
     inkscape:window-maximized="1"
     inkscape:current-layer="layer1"
     showguides="false" />
  <defs
     id="defs1" />
  <g
     inkscape:label="Layer 1"
     inkscape:groupmode="layer"
     id="layer1">
    <g
       id="g17"
       transform="matrix(1.0969548,0,0,1.1634029,13.768909,-124.68259)">
      <path
         style="opacity:1;fill:#70665c;fill-opacity:1;stroke:#000000;stroke-width:0.1;stroke-dasharray:none;stroke-opacity:1"
         d="m 107.17344,131.80617 c 0,0 -4.466,6.1573 -4.11572,8.53812 0.35027,2.38083 4.20329,2.46293 4.20329,2.46293 0,0 2.62705,-1.97033 5.51683,-6.32151 2.88976,-4.35115 -5.6044,-4.67954 -5.6044,-4.67954 z"
         id="path5"
         inkscape:label="lower_leg" />
      <path
         style="fill:#1a1a1a;stroke-width:0.264583"
         d="m 105.69121,140.39691 c 0,0 -1.25964,1.04432 -1.3659,2.58954 -0.10626,1.54523 1.84838,-2.12429 1.78312,-2.25118 -0.0653,-0.12687 0.0115,-0.23996 -0.41722,-0.33837 z"
         id="path9-9-4-1-2" />
      <path
         style="fill:#1a1a1a;stroke-width:0.264583"
         d="m 104.24935,139.82111 c 0,0 -1.25964,1.04432 -1.3659,2.58954 -0.10626,1.54523 1.84838,-2.12429 1.78312,-2.25118 -0.0653,-0.12687 0.0115,-0.23996 -0.41722,-0.33837 z"
         id="path9-9-4-1-2-0" />
      <path
         style="fill:#1a1a1a;stroke-width:0.264583"
         d="m 107.48478,140.73579 c 0,0 -1.24545,1.0612 -1.33088,2.60771 -0.0854,1.54652 1.81959,-2.149 1.75263,-2.27501 -0.067,-0.12598 0.008,-0.24009 -0.42174,-0.33271 z"
         id="path9-9-4-1-0" />
    </g>
    <g
       id="g18"
       transform="matrix(1.0969548,0,0,1.1634029,13.919183,-124.8761)">
      <path
         style="fill:#70665c;fill-opacity:1;stroke:#000000;stroke-width:0.1;stroke-dasharray:none;stroke-opacity:1"
         d="m 86.215885,131.68705 c 0,0 -0.406592,7.59554 1.180392,9.40454 1.586981,1.80901 4.867004,-0.21434 4.867004,-0.21434 0,0 1.136033,-3.08107 1.19982,-8.30405 0.06379,-5.22295 -7.247216,-0.88615 -7.247216,-0.88615 z"
         id="path5-9"
         inkscape:label="lower_leg" />
      <path
         style="fill:#1a1a1a;stroke-width:0.264583"
         d="m 88.153807,139.81227 c 0,0 -0.795826,1.42966 -0.335165,2.90844 0.460673,1.47879 0.953408,-2.64955 0.84662,-2.74419 -0.106771,-0.0947 -0.07618,-0.22783 -0.511455,-0.16425 z"
         id="path9-5" />
      <path
         style="fill:#1a1a1a;stroke-width:0.264583"
         d="m 91.585697,139.49143 c 0,0 -0.364852,1.59504 0.490499,2.88631 0.855365,1.29127 0.175448,-2.8104 0.04648,-2.87145 -0.128972,-0.0611 -0.136781,-0.19748 -0.536976,-0.0149 z"
         id="path9-5-6" />
      <path
         style="fill:#1a1a1a;stroke-width:0.264583"
         d="m 90.44753,139.83041 c 0,0 -0.364852,1.59504 0.490499,2.88631 0.855365,1.29127 0.175448,-2.8104 0.04648,-2.87145 -0.128972,-0.0611 -0.136781,-0.19748 -0.536976,-0.0149 z"
         id="path9-5-6-5" />
      <path
         style="fill:#1a1a1a;stroke-width:0.264583"
         d="m 89.385661,140.01578 c 0,0 -0.726285,1.46622 -0.195175,2.92118 0.531123,1.45497 0.825133,-2.69226 0.713925,-2.78167 -0.111192,-0.0894 -0.08703,-0.22391 -0.51875,-0.13951 z"
         id="path9-5-4" />
    </g>
    <path
       id="path1"
       style="opacity:1;fill:#4d4d4d;stroke:#000000;stroke-width:0.275327;stroke-opacity:1"
       inkscape:label="gray circle"
       d="m 116.7648,7.9799119 -10.05821,4.5138471 0.57158,6.996219 a 27.625691,27.534288 0 0 0 -5.07537,4.1652 l -6.605033,-2.80741 -5.802082,9.70632 5.368782,6.775699 a 27.625691,27.534288 0 0 0 -0.562636,5.206754 27.625691,27.534288 0 0 0 0.0041,0.05161 l -7.46478,4.277361 3.530993,10.834761 8.468076,-0.07424 a 27.625691,27.534288 0 0 0 5.43189,6.044839 l -2.03025,7.603368 9.87889,4.929041 5.8878,-6.411659 a 27.625691,27.534288 0 0 0 3.91957,0.279366 27.625691,27.534288 0 0 0 6.24062,-0.719306 l 5.73898,6.931348 9.38249,-5.894161 -1.80413,-8.407375 a 27.625691,27.534288 0 0 0 4.12518,-5.2689 l 6.73018,0.999767 3.37954,-10.887549 -6.2017,-4.768466 a 27.625691,27.534288 0 0 0 -0.29657,-3.666396 l 6.91316,-5.257891 -4.82086,-10.276595 -8.80672,1.260451 0.0753,0.167154 a 27.625691,27.534288 0 0 0 -2.73543,-2.673203 l 1.7831,-8.675732 -10.14653,-4.293316 -5.4382,6.689931 a 27.625691,27.534288 0 0 0 -4.11835,-0.328311 27.625691,27.534288 0 0 0 -1.03641,0.07306 z m 5.25993,18.4491151 a 16.527608,17.261441 0 0 1 16.52756,17.261268 16.527608,17.261441 0 0 1 -16.52756,17.261278 16.527608,17.261441 0 0 1 -16.52757,-17.261278 16.527608,17.261441 0 0 1 16.52757,-17.261268 z" />
    <path
       style="opacity:1;fill:#70665c;fill-opacity:1;stroke:#000000;stroke-width:0.112969;stroke-dasharray:none;stroke-opacity:1"
       d="m 152.73754,27.184003 c 0,0 3.54377,-13.563497 -2.76098,-20.7374396 -3.0525,-3.4732949 -26.34304,-5.90879913 -34.58611,1.0352355 -8.97124,7.5574691 -17.63681,3.4482611 -17.63681,3.4482611 0,0 -12.502885,2.481683 -11.790352,8.822917 0.03061,0.272536 0.07694,0.534618 0.13761,0.786614 1.350184,5.610627 9.791449,6.222908 9.791449,6.222908 l 22.496203,-1.031654 c 0,0 -0.66681,17.477609 1.47072,19.327058 2.13755,1.849451 6.33933,1.398432 6.81434,-1.507868 0.475,-2.906287 1.45262,-17.290764 1.45262,-17.290764 l 12.82518,1.056825 c 0,0 1.42502,14.267274 4.27508,15.852522 2.85004,1.585248 7.1251,1.717356 6.88759,-1.18893 z"
       id="path4"
       sodipodi:nodetypes="csscssccssccscc" />
    <path
       style="fill:#1a1a1a;stroke-width:0.298896"
       d="m 120.15209,42.869786 c 0,0 -0.93759,1.62323 -0.50034,3.3645 0.43726,1.741259 1.1661,-3.033588 1.05338,-3.14878 -0.11264,-0.115142 -0.073,-0.268527 -0.55304,-0.21572 z"
       id="path9" />
    <path
       style="fill:#1a1a1a;stroke-width:0.298896"
       d="m 121.9602,43.635014 c 0,0 -0.86225,1.669581 -0.34581,3.386286 0.51642,1.716722 1.02591,-3.090018 0.90807,-3.199285 -0.11779,-0.10917 -0.0853,-0.264423 -0.56226,-0.187008 z"
       id="path9-3" />
    <path
       style="fill:#1a1a1a;stroke-width:0.298896"
       d="m 123.68198,43.827151 c 0,0 -0.54376,1.814154 0.27398,3.393672 0.81774,1.579533 0.44713,-3.241488 0.31168,-3.324694 -0.13547,-0.08312 -0.13154,-0.242149 -0.58566,-0.06897 z"
       id="path9-9" />
    <path
       style="fill:#1a1a1a;stroke-width:0.298896"
       d="m 125.2766,43.760079 c 0,0 -0.5433,1.814325 0.27484,3.393606 0.81817,1.57928 0.44626,-3.241622 0.31085,-3.324786 -0.13546,-0.08312 -0.13167,-0.242125 -0.58564,-0.0691 z"
       id="path9-9-2" />
    <path
       style="fill:#1a1a1a;stroke-width:0.298896"
       d="m 149.54234,42.069273 c 0,0 -0.54376,1.814151 0.27398,3.39367 0.81775,1.579533 0.44711,-3.241489 0.31169,-3.324694 -0.13546,-0.08312 -0.13153,-0.242148 -0.58567,-0.06897 z"
       id="path9-9-6" />
    <path
       style="fill:#1a1a1a;stroke-width:0.298896"
       d="m 148.23498,42.243264 c 0,0 -0.54377,1.814154 0.27399,3.393672 0.81774,1.579533 0.4471,-3.241487 0.31167,-3.324693 -0.13545,-0.08326 -0.13153,-0.242151 -0.58566,-0.06897 z"
       id="path9-9-4" />
    <path
       style="fill:#1a1a1a;stroke-width:0.298896"
       d="m 146.4128,42.55376 c 0,0 -0.54377,1.814151 0.27398,3.39367 0.81775,1.579533 0.44712,-3.241474 0.31168,-3.324695 -0.13545,-0.08312 -0.13153,-0.24215 -0.58566,-0.06897 z"
       id="path9-9-4-1" />
    <path
       style="opacity:1;fill:#ffffff;fill-opacity:1;stroke:#000000;stroke-width:0;stroke-dasharray:none;stroke-opacity:1"
       d="m 89.143214,14.381925 c 0,0 6.683896,-2.659019 12.407876,1.583192 5.72397,4.24221 -1.69599,0.895151 -1.69599,0.895151 0,0 -5.600311,3.055158 -1.71366,8.542786 1.00831,1.423685 0.96334,1.144859 0.0718,1.157259 -0.73367,0.0092 -1.30186,0.138674 -2.17424,0.117778 -0.25228,-0.0068 -0.491347,-0.01755 -0.807613,-0.04488 -0.233759,-0.02049 -1.264901,-0.205913 -1.53335,-0.305319 -0.114864,-0.04262 -0.237782,-0.05068 -0.357891,-0.07994 -0.182515,-0.04447 -0.362227,-0.114998 -0.546313,-0.160688 -0.340933,-0.08457 -0.657009,-0.190186 -0.986075,-0.316631 -0.09414,-0.03612 -0.196549,-0.07662 -0.297911,-0.110258 -0.05784,-0.01911 -0.111476,-0.05121 -0.167588,-0.07135 -0.04497,-0.01596 -0.09522,-0.02781 -0.136067,-0.05017 -0.02031,-0.01052 -0.04212,-0.02066 -0.0573,-0.027 -0.0149,-0.0068 -0.01992,-0.01557 -0.04077,-0.02343 -0.06232,-0.02396 -0.136744,-0.04935 -0.196454,-0.08165 -0.03522,-0.01893 -0.07789,-0.03469 -0.114194,-0.05241 -0.03603,-0.01755 -0.07585,-0.03016 -0.110938,-0.04792 -0.04334,-0.02183 -0.0894,-0.03998 -0.130853,-0.06393 -0.01707,-0.0092 -0.03644,-0.01834 -0.05404,-0.02767 -0.101589,-0.05452 -0.19793,-0.09674 -0.29886,-0.145702 -0.13505,-0.06551 -0.265942,-0.144456 -0.393692,-0.216211 -0.162305,-0.09118 -0.280952,-0.176679 -0.431093,-0.26637 -0.31957,-0.190876 -0.638993,-0.408016 -0.876219,-0.589791 -0.380351,-0.29145 -0.610601,-0.594019 -0.65503,-0.850938 -0.423996,-2.451933 5.92799,-2.362495 3.843329,-6.954971 -0.677273,-1.492023 -1.078728,-1.755203 -1.47387,-1.549099 -0.554725,0.289343 -0.900114,0.45017 -1.134509,0.287813 -0.04484,-0.03106 -0.147554,-0.05824 -0.164012,-0.07951 -0.01089,-0.01376 -0.10633,-0.03818 -0.122859,-0.09752 -0.01924,-0.06912 0.146062,-0.178808 0.22643,-0.290641 z"
       id="path10"
       sodipodi:nodetypes="cscsssssssssssssssssssssssssssscc" />
    <path
       style="fill:#000000;fill-opacity:1;stroke-width:0.431584"
       d="m 90.629276,22.348133 c 0,0 1.049902,3.940915 4.148203,2.531817 1.830851,-0.83266 -0.325626,0.02118 -2.03144,-0.696755 -1.180889,-0.497138 -1.932758,-2.044288 -1.932758,-2.044288 0,0 -0.122589,-0.259552 -0.177111,-0.197431 -0.02723,0.03108 -0.03753,0.142407 -0.0068,0.406657 z"
       id="path11"
       sodipodi:nodetypes="csscscc" />
    <path
       style="fill:#ff0000;fill-opacity:1;stroke-width:0.29893"
       d="m 91.584845,24.194602 c 0,0 0.125434,0.167707 0.35177,0.366001 0.177191,0.155205 0.444421,0.36023 0.777416,0.481137 0.137963,0.05017 0.289946,0.09436 0.44075,0.118854 0.281074,0.0458 0.574882,0.03241 0.839118,-0.02713 0.09116,-0.02066 -0.0068,0.01795 0.034,-0.0068 0.494487,-0.30193 -2.442999,-0.931665 -2.442999,-0.931665 z"
       id="path12"
       sodipodi:nodetypes="cssssscc" />
    <path
       style="opacity:1;fill:#4d2b09;fill-opacity:1;stroke:none;stroke-width:0.112969;stroke-dasharray:none;stroke-opacity:1"
       d="m 91.421972,19.897745 c 0,0 1.180063,-1.30596 0.513084,-2.503084 -0.667004,-1.197129 -5.250419,-0.316001 -5.604137,0.222682 -0.353734,0.538682 -0.341054,1.777059 -0.341054,1.777059 0,0 4.700313,1.687139 5.432107,0.503343 z"
       id="path14" />
    <path
       style="fill:#4d2b09;fill-opacity:1;stroke:none;stroke-width:0.112969;stroke-dasharray:none;stroke-opacity:1"
       d="m 98.11176,18.606831 c 0,0 -0.40005,0.349482 -0.6703,0.8762 -0.10931,0.213127 -0.24675,0.425567 -0.3281,0.655412 -0.0526,0.148711 -0.14529,0.304748 -0.12828,0.47297 0.005,0.05373 0.004,0.120945 0.0377,0.177349 0.0122,0.02104 0.0142,0.04075 0.0218,0.06046 0.008,0.02066 0.0217,0.04129 0.0313,0.06405 0.53031,1.271684 5.42858,1.082778 5.83947,0.591831 0.41089,-0.490904 0.50439,-1.673934 0.50439,-1.673934 0,0 -0.0275,-0.07476 -0.0402,-0.08628 -0.23849,-0.214702 -4.446,-2.177095 -5.26766,-1.138177 z"
       id="path14-2"
       sodipodi:nodetypes="cssssssscscc" />
    <ellipse
       style="opacity:1;fill:#4d2b09;fill-opacity:1;stroke:none;stroke-width:0.112969;stroke-dasharray:none;stroke-opacity:1"
       id="path15"
       cx="93.477982"
       cy="21.061026"
       rx="0.94326681"
       ry="0.53867978" />
    <path
       style="opacity:1;fill:#000000;fill-opacity:1;stroke:none;stroke-width:0.112969;stroke-dasharray:none;stroke-opacity:1"
       d="m 98.10166,19.746212 c 0,0 1.5056,-1.442886 3.374,0.404021 1.86838,1.846893 -0.50791,-0.51945 -1.54188,-0.596399 -1.03397,-0.07702 -1.83212,0.192375 -1.83212,0.192375 z"
       id="path18" />
    <path
       style="fill:#000000;fill-opacity:1;stroke:none;stroke-width:0.112969;stroke-dasharray:none;stroke-opacity:1"
       d="m 87.230274,18.209916 c 0,0 1.505594,-1.442883 3.373996,0.404022 1.86839,1.846895 -0.50791,-0.519452 -1.541883,-0.596397 -1.033959,-0.07702 -1.832113,0.192373 -1.832113,0.192375 z"
       id="path18-8" />
    <g
       id="g24"
       transform="matrix(0.14307721,0,0,0.16247047,33.414632,-6.446583)">
      <ellipse
         style="opacity:1;fill:#d4d3ca;fill-opacity:1;stroke:none;stroke-width:0.905156;stroke-dasharray:none;stroke-opacity:1"
         id="path19"
         cx="443.90637"
         cy="119.90479"
         rx="77.071419"
         ry="20.674215" />
      <ellipse
         style="fill:#000000;fill-opacity:1;stroke:none;stroke-width:0.753464;stroke-dasharray:none;stroke-opacity:1"
         id="path19-8"
         cx="443.2995"
         cy="120.20023"
         rx="67.968491"
         ry="16.244026" />
      <ellipse
         style="fill:#d4d3ca;fill-opacity:1;stroke:none;stroke-width:0.610075;stroke-dasharray:none;stroke-opacity:1"
         id="path19-8-6"
         cx="442.99609"
         cy="119.6095"
         rx="59.775864"
         ry="12.109185" />
      <ellipse
         style="fill:#000000;fill-opacity:1;stroke:none;stroke-width:0.455772;stroke-dasharray:none;stroke-opacity:1"
         id="path19-8-6-3"
         cx="444.20981"
         cy="119.90487"
         rx="48.852348"
         ry="8.2696867" />
      <ellipse
         style="fill:#d4d3ca;fill-opacity:1;stroke:none;stroke-width:0.339955;stroke-dasharray:none;stroke-opacity:1"
         id="path19-8-6-3-2"
         cx="444.70029"
         cy="120.17071"
         rx="40.052856"
         ry="5.6115727" />
      <path
         style="opacity:1;fill:#d4d3ca;fill-opacity:1;stroke:none;stroke-width:0.905156;stroke-dasharray:none;stroke-opacity:1"
         d="m 410.91491,69.771192 68.76581,0.313464 4.93483,49.599814 c 0,0 -20.37936,12.32982 -79.85176,-0.22238 -0.49048,-0.1035 -0.37322,-0.27328 -0.34845,-0.39828 0.0303,-0.15182 -0.0421,-0.24916 0.0377,-0.40989 0.19183,-0.38936 0.0687,-0.78229 0.10657,-1.09548 0.12202,-0.99873 -0.002,-1.75011 0.22294,-2.84799 0.65085,-3.16413 0.85664,-6.86112 1.70599,-11.7912 2.51012,-14.569868 4.42653,-33.147519 4.42653,-33.147519 z"
         id="path20"
         sodipodi:nodetypes="cccsssssscc" />
      <path
         style="opacity:1;fill:#000000;fill-opacity:1;stroke:none;stroke-width:0.905156;stroke-dasharray:none;stroke-opacity:1"
         d="m 411.05999,70.004811 c 0,0 25.62165,16.259291 64.38487,2.00884 5.73163,-2.107147 4.08381,-1.422223 4.07451,-2.639749 -0.0541,-7.016674 -73.11356,-4.150459 -68.45938,0.631348 z"
         id="path21"
         sodipodi:nodetypes="cssc" />
      <path
         style="fill:#000000;fill-opacity:1;stroke:none;stroke-width:0.964407;stroke-dasharray:none;stroke-opacity:1"
         d="m 408.93668,88.239092 -0.66863,4.56492 c 0,0 41.56229,14.950488 72.98472,-0.11338 0.54084,-0.30095 0.33433,-0.29112 0.33176,-0.35095 -0.005,-0.0893 0.0133,-0.16253 0.0201,-0.25004 0.0133,-0.14914 -0.045,-0.29201 -0.0552,-0.43668 -0.007,-0.116 0.0403,-0.23309 -10e-4,-0.35096 -0.24396,-0.6787 -0.26049,-2.14163 -0.26049,-2.14163 l -0.13013,-1.03421 c 0,0 -32.55331,14.151438 -72.22136,0.11513 z"
         id="path22-3"
         sodipodi:nodetypes="cccscccccsc" />
      <path
         style="fill:#000000;fill-opacity:1;stroke:none;stroke-width:0.982681;stroke-dasharray:none;stroke-opacity:1"
         d="m 407.35447,98.605212 -0.69423,4.564898 c 0,0 43.15251,14.95049 75.7772,-0.11336 0.56157,-0.30094 0.34708,-0.29113 0.34452,-0.35094 -0.005,-0.0894 0.0133,-0.16254 0.0211,-0.25005 0.0133,-0.14914 -0.0469,-0.29202 -0.0568,-0.43669 -0.007,-0.11599 0.0414,-0.23308 -0.001,-0.35096 -0.25332,-0.67869 -0.27047,-2.141628 -0.27047,-2.141628 l -0.13503,-1.0342 c 0,0 -33.79883,14.151428 -74.98463,0.11524 z"
         id="path22-3-5"
         sodipodi:nodetypes="cccscccccsc" />
      <path
         style="fill:#000000;fill-opacity:1;stroke:none;stroke-width:0.95186;stroke-dasharray:none;stroke-opacity:1"
         d="m 410.04248,77.266441 -0.65141,4.564931 c 0,0 40.48784,14.95048 71.09792,-0.11349 0.5269,-0.30094 0.3256,-0.29112 0.32322,-0.35095 -0.002,-0.0893 0.0118,-0.16254 0.0201,-0.25003 0.0118,-0.14916 -0.0441,-0.29202 -0.0531,-0.43669 -0.007,-0.116 0.0385,-0.23308 -10e-4,-0.35097 -0.23761,-0.678676 -0.25375,-2.141626 -0.25375,-2.141626 l -0.12674,-1.034189 c 0,0 -31.71172,14.151415 -70.35428,0.115244 z"
         id="path22-3-5-8"
         sodipodi:nodetypes="cccscccccsc" />
      <path
         style="fill:#000000;fill-opacity:1;stroke:none;stroke-width:1.0035;stroke-dasharray:none;stroke-opacity:1"
         d="m 405.48776,110.12375 -0.72397,4.5649 c 0,0 45.00061,14.9505 79.02253,-0.11336 0.58562,-0.30094 0.36194,-0.29112 0.35928,-0.35096 -0.005,-0.0893 0.0133,-0.16251 0.022,-0.25003 0.0133,-0.14913 -0.0486,-0.29202 -0.0596,-0.4367 -0.01,-0.11599 0.0431,-0.23308 -10e-4,-0.35095 -0.26414,-0.67869 -0.28204,-2.14163 -0.28204,-2.14163 l -0.14081,-1.03419 c 0,0 -35.24632,14.15143 -78.19601,0.11511 z"
         id="path22-3-5-2"
         sodipodi:nodetypes="cccscccccsc" />
      <ellipse
         style="opacity:1;fill:#d4d3ca;fill-opacity:1;stroke:none;stroke-width:0.741457;stroke-dasharray:none;stroke-opacity:1"
         id="path23"
         cx="444.49316"
         cy="70.81543"
         rx="27.034304"
         ry="3.7591398" />
      <ellipse
         style="fill:#000000;fill-opacity:1;stroke:none;stroke-width:0.510765;stroke-dasharray:none;stroke-opacity:1"
         id="path23-5"
         cx="445.10019"
         cy="70.988129"
         rx="21.992193"
         ry="2.1928315" />
      <ellipse
         style="fill:#d4d3ca;fill-opacity:1;stroke:none;stroke-width:0.286975;stroke-dasharray:none;stroke-opacity:1"
         id="path23-5-8"
         cx="444.96136"
         cy="70.963432"
         rx="16.199127"
         ry="0.93978488" />
    </g>
  </g>
  <g
     inkscape:groupmode="layer"
     id="layer2"
     inkscape:label="Perezoso" />
</svg>
